<mxfile host="app.diagrams.net" agent="Mozilla/5.0 (Macintosh; Intel Mac OS X 10_15_7) AppleWebKit/537.36 (KHTML, like Gecko) Chrome/141.0.0.0 Safari/537.36" version="28.2.5">
  <diagram name="HMS to DCM Flow" id="SNuZWudJNzGsJ2TFcNVQ">
    <mxGraphModel dx="1571" dy="819" grid="1" gridSize="10" guides="1" tooltips="1" connect="1" arrows="1" fold="1" page="1" pageScale="1" pageWidth="1600" pageHeight="900" math="0" shadow="0">
      <root>
        <mxCell id="0" />
        <mxCell id="1" parent="0" />
        <mxCell id="wKu63SsGaHH9mve1o9E4-1" value="Data Catalog Management System - Metadata Synchronization Architecture" style="text;html=1;strokeColor=none;fillColor=none;align=center;verticalAlign=middle;whiteSpace=wrap;rounded=0;fontSize=18;fontStyle=1" vertex="1" parent="1">
          <mxGeometry x="730" y="290" width="700" height="40" as="geometry" />
        </mxCell>
        <mxCell id="wKu63SsGaHH9mve1o9E4-2" value="&lt;b&gt;HMS System&lt;/b&gt;&lt;br&gt;(PostgreSQL)&lt;br&gt;&lt;br&gt;Hive Metastore&lt;br&gt;Source" style="rounded=1;whiteSpace=wrap;html=1;fillColor=#dae8fc;strokeColor=#6c8ebf;fontSize=12;verticalAlign=top;" vertex="1" parent="1">
          <mxGeometry x="460" y="390" width="180" height="120" as="geometry" />
        </mxCell>
        <mxCell id="wKu63SsGaHH9mve1o9E4-3" value="&lt;b&gt;ITC Hadoop Hive DB&lt;/b&gt;&lt;br&gt;(SDP - Strategic Data Platform)" style="rounded=1;whiteSpace=wrap;html=1;fillColor=#fff2cc;strokeColor=#d6b656;fontSize=12;verticalAlign=top;dashed=1;dashPattern=8 8;" vertex="1" parent="1">
          <mxGeometry x="740" y="370" width="280" height="180" as="geometry" />
        </mxCell>
        <mxCell id="wKu63SsGaHH9mve1o9E4-4" value="&lt;b&gt;Main Table&lt;/b&gt;&lt;br&gt;&lt;br&gt;Full Refresh&lt;br&gt;Hive Metadata" style="rounded=0;whiteSpace=wrap;html=1;fillColor=#e1d5e7;strokeColor=#9673a6;fontSize=11;" vertex="1" parent="1">
          <mxGeometry x="770" y="420" width="220" height="100" as="geometry" />
        </mxCell>
        <mxCell id="wKu63SsGaHH9mve1o9E4-5" value="&lt;b&gt;BEM AIF&lt;/b&gt;&lt;br&gt;(SDP - Strategic Data Platform)" style="rounded=1;whiteSpace=wrap;html=1;fillColor=#d5e8d4;strokeColor=#82b366;fontSize=12;verticalAlign=top;dashed=1;dashPattern=8 8;" vertex="1" parent="1">
          <mxGeometry x="740" y="630" width="280" height="180" as="geometry" />
        </mxCell>
        <mxCell id="wKu63SsGaHH9mve1o9E4-6" value="&lt;b&gt;CDC Table&lt;/b&gt;&lt;br&gt;(Change Data Capture)&lt;br&gt;&lt;br&gt;Daily Updates&lt;br&gt;Insert/Update/Delete&lt;br&gt;Metadata Records" style="rounded=0;whiteSpace=wrap;html=1;fillColor=#b1ddf0;strokeColor=#10739e;fontSize=11;" vertex="1" parent="1">
          <mxGeometry x="770" y="680" width="220" height="100" as="geometry" />
        </mxCell>
        <mxCell id="wKu63SsGaHH9mve1o9E4-7" value="&lt;b&gt;DCM System&lt;/b&gt;&lt;br&gt;(Oracle Database)&lt;br&gt;&lt;br&gt;Data Catalog&lt;br&gt;Management&lt;br&gt;Repository" style="rounded=1;whiteSpace=wrap;html=1;fillColor=#f8cecc;strokeColor=#b85450;fontSize=12;verticalAlign=top;" vertex="1" parent="1">
          <mxGeometry x="1140" y="630" width="220" height="180" as="geometry" />
        </mxCell>
        <mxCell id="wKu63SsGaHH9mve1o9E4-8" value="" style="edgeStyle=orthogonalEdgeStyle;rounded=0;orthogonalLoop=1;jettySize=auto;html=1;strokeWidth=3;strokeColor=#0066CC;exitX=1;exitY=0.5;exitDx=0;exitDy=0;entryX=0;entryY=0.5;entryDx=0;entryDy=0;" edge="1" parent="1" source="wKu63SsGaHH9mve1o9E4-2" target="wKu63SsGaHH9mve1o9E4-4">
          <mxGeometry relative="1" as="geometry" />
        </mxCell>
        <mxCell id="wKu63SsGaHH9mve1o9E4-9" value="&lt;b&gt;Full Refresh Sync&lt;/b&gt;&lt;br&gt;ITC Team" style="edgeLabel;html=1;align=center;verticalAlign=middle;resizable=0;points=[];fontSize=10;backgroundColor=#ffffff;" vertex="1" connectable="0" parent="wKu63SsGaHH9mve1o9E4-8">
          <mxGeometry x="-0.1" y="2" relative="1" as="geometry">
            <mxPoint x="5" y="-12" as="offset" />
          </mxGeometry>
        </mxCell>
        <mxCell id="wKu63SsGaHH9mve1o9E4-10" value="" style="edgeStyle=orthogonalEdgeStyle;rounded=0;orthogonalLoop=1;jettySize=auto;html=1;strokeWidth=3;strokeColor=#009900;exitX=0.5;exitY=1;exitDx=0;exitDy=0;entryX=0.5;entryY=0;entryDx=0;entryDy=0;" edge="1" parent="1" source="wKu63SsGaHH9mve1o9E4-4" target="wKu63SsGaHH9mve1o9E4-6">
          <mxGeometry relative="1" as="geometry" />
        </mxCell>
        <mxCell id="wKu63SsGaHH9mve1o9E4-11" value="&lt;b&gt;CDC Creation&lt;/b&gt;&lt;br&gt;DCM Team&lt;br&gt;(Daily Changes)" style="edgeLabel;html=1;align=center;verticalAlign=middle;resizable=0;points=[];fontSize=10;backgroundColor=#ffffff;" vertex="1" connectable="0" parent="wKu63SsGaHH9mve1o9E4-10">
          <mxGeometry x="-0.1" y="2" relative="1" as="geometry">
            <mxPoint x="50" as="offset" />
          </mxGeometry>
        </mxCell>
        <mxCell id="wKu63SsGaHH9mve1o9E4-12" value="" style="edgeStyle=orthogonalEdgeStyle;rounded=0;orthogonalLoop=1;jettySize=auto;html=1;strokeWidth=3;strokeColor=#CC0000;exitX=1;exitY=0.5;exitDx=0;exitDy=0;entryX=0;entryY=0.5;entryDx=0;entryDy=0;" edge="1" parent="1" source="wKu63SsGaHH9mve1o9E4-6" target="wKu63SsGaHH9mve1o9E4-7">
          <mxGeometry relative="1" as="geometry" />
        </mxCell>
        <mxCell id="wKu63SsGaHH9mve1o9E4-13" value="&lt;b&gt;Metadata Sync&lt;/b&gt;&lt;br&gt;DCM Team&lt;br&gt;(Incremental Load)" style="edgeLabel;html=1;align=center;verticalAlign=middle;resizable=0;points=[];fontSize=10;backgroundColor=#ffffff;" vertex="1" connectable="0" parent="wKu63SsGaHH9mve1o9E4-12">
          <mxGeometry x="-0.1" y="2" relative="1" as="geometry">
            <mxPoint x="5" y="-12" as="offset" />
          </mxGeometry>
        </mxCell>
      </root>
    </mxGraphModel>
  </diagram>
</mxfile>
